<svg xmlns="http://www.w3.org/2000/svg" width="256" height="256" viewBox="0 0 256 256">
  <g transform="scale(2.81 2.81)">
    <!-- Outer Badge Shape (Soft Gray) -->
    <path d="M 49.66 1.125 c 4.67 -2.393 10.394 -0.859 13.243 3.548 c 1.784 2.761 4.788 4.495 8.071 4.66 
        c 5.241 0.263 9.431 4.453 9.694 9.694 c 0.165 3.283 1.899 6.286 4.66 8.071 c 4.407 2.848 5.941 8.572 3.548 13.242 
        c -1.499 2.926 -1.499 6.394 0 9.319 c 2.393 4.67 0.859 10.394 -3.548 13.242 c -2.761 1.784 -4.495 4.788 -4.66 8.071 
        c -0.263 5.241 -4.453 9.431 -9.694 9.694 c -3.283 0.165 -6.286 1.899 -8.071 4.66 c -2.848 4.407 -8.572 5.941 -13.242 3.548 
        c -2.926 -1.499 -6.394 -1.499 -9.319 0 c -4.67 2.393 -10.394 0.859 -13.242 -3.548 c -1.784 -2.761 -4.788 -4.495 -8.071 -4.66 
        c -5.241 -0.263 -9.431 -4.453 -9.694 -9.694 c -0.165 -3.283 -1.899 -6.286 -4.66 -8.071 c -4.407 -2.848 -5.941 -8.572 -3.548 -13.242 
        c 1.499 -2.926 1.499 -6.394 0 -9.319 c -2.393 -4.67 -0.859 -10.394 3.548 -13.242 c 2.761 -1.784 4.495 -4.788 4.66 -8.071 
        c 0.263 -5.241 4.453 -9.431 9.694 -9.694 c 3.283 -0.165 6.286 -1.899 8.071 -4.66 c 2.848 -4.407 8.572 -5.941 13.242 -3.548 
        C 43.266 2.624 46.734 2.624 49.66 1.125 z" 
        fill="#A0A4A9"/>
    
    <!-- Inner Background (Darker Gray for Depth) -->
    <polygon points="36.94,66.3 36.94,46.9 62.8,35.34 72.5,45.04 " 
        fill="#888B8E"/>
    
    <!-- White Checkmark -->
    <polygon points="36.94,66.3 17.5,46.87 27.2,37.16 36.94,46.9 60.11,23.7 69.81,33.39 " 
        fill="#FFFFFF"/>
  </g>
</svg>
